<svg xmlns="http://www.w3.org/2000/svg" xml:space="preserve" width="800" height="800" viewBox="0 0 553.349 553.349"><path d="m293.057 332.016-49.285-88.884c-1.53-2.754-3.022-8.358-3.079-11.504l-2.983-143.6-31.518-51.953-62.797 5.078c-18.131 1.463-31.614 17.327-30.151 35.458l33.995 420.77c1.463 18.13 17.318 31.642 35.448 30.169l129.333-10.451-10.576-22.511c-3.003 2.229-6.627 3.729-10.634 4.055-11.408.928-21.4-7.563-22.318-18.972-.832-10.28 6.015-19.345 15.739-21.717l-8.3-17.681 20.091-87.315c1.462-6.379.219-15.195-2.965-20.942zm-13.005 17.288-18.646 81.043-65.513 5.297c-4.992.402-9.362-3.317-9.764-8.3l-26.172-323.939a9.036 9.036 0 0 1 8.31-9.744l53.837-4.351 2.218 142.586c.096 5.842 2.295 14.104 5.125 19.192l49.285 88.884c1.215 2.179 1.884 6.884 1.32 9.332z"/><path d="M417.083 69.381c0-18.178-14.736-32.914-32.905-32.914H262.524l27.034 53.923-7.507 142.768c-.325 5.623.88 13.856 2.812 19.144l33.21 91.064c.947 2.601 1.1 7.755.315 10.403l-24.737 80.125 33.966 90.566h56.562c18.169 0 32.905-14.736 32.905-32.924V69.381h-.001zm-44.428 355.448c0 5.001-4.055 9.056-9.065 9.056h-51.924l22.424-75.458c1.798-6.062 1.539-14.755-.622-20.684l-33.21-91.063c-1.167-3.185-2.047-9.19-1.846-12.584l8.367-143.323h56.82c5.011 0 9.065 4.055 9.065 9.056V424.83h-.009zM92.091 93.278l-39.837-27.1c-2.171-1.473-5.164-.928-6.646 1.262a4.79 4.79 0 0 0 1.262 6.646l39.847 27.1c.823.564 1.76.832 2.687.832a4.783 4.783 0 0 0 2.687-8.74zM91.881 72.891a4.78 4.78 0 0 0 3.911 2.018c.957 0 1.922-.277 2.754-.88a4.782 4.782 0 0 0 1.147-6.665L53.469 2.023C51.939-.129 48.955-.655 46.804.885a4.782 4.782 0 0 0-1.147 6.665l46.224 65.341z"/><path d="M428.883 69.974a4.792 4.792 0 0 0 4.619 4.944h.162a4.78 4.78 0 0 0 4.771-4.619c1.731-51.992-48.73-54.325-49.237-54.344-2.658.019-4.857 1.97-4.943 4.609a4.787 4.787 0 0 0 4.608 4.954c1.694.048 41.435 1.913 40.02 44.456zM95.783 279.115a4.763 4.763 0 0 0 3.682-1.73l17.346-20.923c1.683-2.037 1.406-5.049-.622-6.732a4.794 4.794 0 0 0-6.732.622l-17.346 20.923a4.779 4.779 0 0 0 .631 6.732 4.702 4.702 0 0 0 3.041 1.108zM168.247 553.349c2.41 0 4.944-.105 7.603-.315 2.629-.201 4.59-2.515 4.379-5.145-.21-2.62-2.477-4.552-5.145-4.38-35.075 2.744-42.572-16.447-42.907-17.385-.842-2.467-3.538-3.834-6.034-2.974a4.77 4.77 0 0 0-3.012 6.053c.345 1.043 8.53 24.146 45.116 24.146zM429.064 505.651a4.781 4.781 0 0 0 3.472 5.804l70.083 17.634a4.93 4.93 0 0 0 1.177.144 4.772 4.772 0 0 0 4.628-3.615 4.781 4.781 0 0 0-3.472-5.804l-70.083-17.634c-2.554-.631-5.164.918-5.805 3.471zM459.177 553.349c1.76 0 3.452-.976 4.284-2.648a4.785 4.785 0 0 0-2.161-6.417l-42.095-20.894a4.788 4.788 0 0 0-6.406 2.161 4.782 4.782 0 0 0 2.161 6.416l42.094 20.885a4.792 4.792 0 0 0 2.123.497z"/></svg>