<svg xmlns="http://www.w3.org/2000/svg" width="64" height="64" stroke="#000" class="icon" viewBox="0 0 1024 1024"><path fill="#90cea1" stroke="#CCC" stroke-linecap="round" stroke-linejoin="round" stroke-width="30.72" d="M478.4 221.3c-44.7 0-81 36.3-81 81s36.3 81 81 81 81-36.3 81-81-36.3-81-81-81zm32.4 288.9c0-17.9-14.5-32.4-32.4-32.4S446 492.3 446 510.2s14.5 32.4 32.4 32.4 32.4-14.5 32.4-32.4zm-113.4 208c0 44.7 36.3 81 81 81s81-36.3 81-81-36.3-81-81-81c-44.8 0-81 36.2-81 81zm207.9-208c0 44.7 36.3 81 81 81s81-36.3 81-81-36.3-81-81-81-81 36.3-81 81zm-415.9 0c0 44.7 36.3 81 81 81s81-36.3 81-81-36.3-81-81-81-81 36.3-81 81zm766.4 379.1c-30-65.3-95.7-108-167.6-108.7-37.7-.6-74.2 10.6-105.5 31.6-.2.1-.3.2-.5.3-60.3 40.7-130.8 62.3-203.8 62.3-201 0-364.5-163.5-364.5-364.5s163.5-364.5 364.5-364.5 364.5 163.5 364.5 364.5c0 61.7-15.7 122.6-45.3 176.2-6.5 11.7-2.2 26.5 9.5 33s26.5 2.2 33-9.5c33.6-60.8 51.4-129.8 51.4-199.7 0-227.8-185.3-413.1-413.1-413.1S65.3 282.5 65.3 510.3s185.3 413.1 413.1 413.1c82.1 0 161.4-24.1 229.4-69.6.2-.1.5-.2.7-.4 23.4-16.1 50.8-24.1 79.3-24.2 53.1.5 101.7 32.1 123.9 80.4 4.1 8.9 12.9 14.2 22.1 14.2 3.4 0 6.8-.7 10.1-2.2 12.2-5.7 17.5-20.1 11.9-32.3z"/><path fill="#90cea1" d="M478.4 221.3c-44.7 0-81 36.3-81 81s36.3 81 81 81 81-36.3 81-81-36.3-81-81-81zm32.4 288.9c0-17.9-14.5-32.4-32.4-32.4S446 492.3 446 510.2s14.5 32.4 32.4 32.4 32.4-14.5 32.4-32.4zm-113.4 208c0 44.7 36.3 81 81 81s81-36.3 81-81-36.3-81-81-81c-44.8 0-81 36.2-81 81zm207.9-208c0 44.7 36.3 81 81 81s81-36.3 81-81-36.3-81-81-81-81 36.3-81 81zm-415.9 0c0 44.7 36.3 81 81 81s81-36.3 81-81-36.3-81-81-81-81 36.3-81 81zm766.4 379.1c-30-65.3-95.7-108-167.6-108.7-37.7-.6-74.2 10.6-105.5 31.6-.2.1-.3.2-.5.3-60.3 40.7-130.8 62.3-203.8 62.3-201 0-364.5-163.5-364.5-364.5s163.5-364.5 364.5-364.5 364.5 163.5 364.5 364.5c0 61.7-15.7 122.6-45.3 176.2-6.5 11.7-2.2 26.5 9.5 33s26.5 2.2 33-9.5c33.6-60.8 51.4-129.8 51.4-199.7 0-227.8-185.3-413.1-413.1-413.1S65.3 282.5 65.3 510.3s185.3 413.1 413.1 413.1c82.1 0 161.4-24.1 229.4-69.6.2-.1.5-.2.7-.4 23.4-16.1 50.8-24.1 79.3-24.2 53.1.5 101.7 32.1 123.9 80.4 4.1 8.9 12.9 14.2 22.1 14.2 3.4 0 6.8-.7 10.1-2.2 12.2-5.7 17.5-20.1 11.9-32.3z"/></svg>