<svg xmlns="http://www.w3.org/2000/svg" xml:space="preserve" width="64" height="64" viewBox="0 0 512 512"><path d="M450.297 512h-68.014c-10.345 0-18.732-8.387-18.732-18.732V335.089c0-10.345 8.387-18.732 18.732-18.732h68.014c10.345 0 18.732 8.387 18.732 18.732v158.179c-.001 10.345-8.388 18.732-18.732 18.732z" style="fill:#80d0e1"/><path d="M469.028 353.821H363.551v-176.91c0-10.345 8.387-18.732 18.732-18.732h68.014c10.345 0 18.732 8.387 18.732 18.732v176.91z" style="fill:#20b8ae"/><path d="M469.028 195.643H363.551V18.732C363.551 8.387 371.938 0 382.283 0h68.014c10.345 0 18.732 8.387 18.732 18.732v176.911z" style="fill:#94ff96"/><path d="M401.015 512H61.703c-10.345 0-18.732-8.387-18.732-18.732V18.732C42.972 8.387 51.359 0 61.703 0h339.311v512z" style="fill:#7a7fff"/><path d="M221.996 0h179.025v512H221.996z" style="fill:#575cff"/><path d="m320.045 372.846-69.03-119.564c26.462-11.313 45.055-37.598 45.055-68.148 0-40.846-33.23-74.076-74.076-74.076s-74.076 33.23-74.076 74.076c0 30.551 18.593 56.837 45.055 68.148l-69.03 119.564c-7.207 12.482 1.834 28.098 16.222 28.098h163.66c14.409-.001 23.415-15.638 16.22-28.098z" style="fill:#2e46ff"/><path d="m320.045 372.846-69.03-119.564c26.462-11.313 45.055-37.598 45.055-68.148 0-40.846-33.23-74.076-74.076-74.076h-.001v289.888h81.831c14.41-.003 23.416-15.64 16.221-28.1z" style="fill:#fff"/></svg>